# xmcd
#
# Track frame offsets: 
#        150
#        15797
#        28600
#        46062
#        62907
#        86910
#        106280
#        120407
#        132775
#        145775
#        159992
#        171127
#        187540
#        206710
#
# Disc length: 2965 seconds
#
# Revision: 2
# Processed by: cddbd v1.5.2PL0 Copyright (c) Steve Scherf et al.
# Submitted via: ExactAudioCopy v0.95b4
#
DISCID=a80b930e
DTITLE=aselin debison - Sweet is the Melody
DYEAR=2002
DGENRE=Vocal
TTITLE0=Sweet is the Melody
TTITLE1=The Dance You Choose
TTITLE2=Rise Again
TTITLE3=Moonlight Shadow
TTITLE4=Medley:Somewhere Over the Rainbow/What a Wonderful World
TTITLE5=Out of the Woods
TTITLE6=Driftwood
TTITLE7=Some Days
TTITLE8=Once in Every Life
TTITLE9=Love So Rare
TTITLE10=Getting Dark Again
TTITLE11=To Say Goodbye to You
TTITLE12=The Island
TTITLE13=The Gift
EXTD=
EXTT0=
EXTT1=
EXTT2=
EXTT3=
EXTT4=
EXTT5=
EXTT6=
EXTT7=
EXTT8=
EXTT9=
EXTT10=
EXTT11=
EXTT12=
EXTT13=
PLAYORDER=
